<svg width="420" height="29" viewBox="0 0 420 29" fill="none" xmlns="http://www.w3.org/2000/svg">
<path d="M2.376 23V6.2H9.888C11.776 6.2 13.248 6.576 14.304 7.328C15.36 8.064 15.888 9.128 15.888 10.52C15.888 11.896 15.384 12.96 14.376 13.712C13.368 14.448 12.04 14.816 10.392 14.816L10.824 13.952C12.696 13.952 14.144 14.328 15.168 15.08C16.192 15.832 16.704 16.92 16.704 18.344C16.704 19.8 16.168 20.944 15.096 21.776C14.024 22.592 12.44 23 10.344 23H2.376ZM5.448 20.6H10.248C11.336 20.6 12.16 20.4 12.72 20C13.28 19.584 13.56 18.952 13.56 18.104C13.56 17.256 13.28 16.64 12.72 16.256C12.16 15.856 11.336 15.656 10.248 15.656H5.448V20.6ZM5.448 13.376H9.624C10.632 13.376 11.4 13.176 11.928 12.776C12.456 12.36 12.72 11.768 12.72 11C12.72 10.2 12.456 9.6 11.928 9.2C11.4 8.8 10.632 8.6 9.624 8.6H5.448V13.376ZM32.8583 23V10.184H35.8583V23H32.8583ZM26.1623 14.408C27.8103 14.408 29.0583 14.776 29.9062 15.512C30.7703 16.248 31.2023 17.288 31.2023 18.632C31.2023 20.024 30.7223 21.112 29.7623 21.896C28.8183 22.664 27.4743 23.04 25.7303 23.024L19.9223 23V10.184H22.9223V14.384L26.1623 14.408ZM25.4663 20.816C26.3463 20.832 27.0183 20.648 27.4823 20.264C27.9463 19.88 28.1783 19.32 28.1783 18.584C28.1783 17.848 27.9463 17.32 27.4823 17C27.0343 16.664 26.3623 16.488 25.4663 16.472L22.9223 16.448V20.792L25.4663 20.816ZM46.011 23.24C44.955 23.24 44.011 23.08 43.179 22.76C42.347 22.44 41.627 21.952 41.019 21.296C40.427 20.624 39.971 19.776 39.651 18.752C39.331 17.728 39.171 16.512 39.171 15.104C39.171 14.08 39.259 13.144 39.435 12.296C39.611 11.448 39.875 10.688 40.227 10.016C40.579 9.328 41.019 8.72 41.547 8.192C42.091 7.664 42.723 7.224 43.443 6.872C44.163 6.52 44.979 6.248 45.891 6.056L51.843 4.784L52.275 7.472L46.875 8.576C46.571 8.64 46.203 8.736 45.771 8.864C45.355 8.976 44.923 9.152 44.475 9.392C44.043 9.616 43.635 9.944 43.251 10.376C42.883 10.792 42.579 11.336 42.339 12.008C42.115 12.664 42.003 13.488 42.003 14.48C42.003 14.784 42.011 15.016 42.027 15.176C42.059 15.32 42.083 15.48 42.099 15.656C42.131 15.816 42.147 16.056 42.147 16.376L41.019 15.2C41.339 14.384 41.779 13.688 42.339 13.112C42.915 12.52 43.579 12.072 44.331 11.768C45.099 11.448 45.931 11.288 46.827 11.288C48.027 11.288 49.091 11.536 50.019 12.032C50.947 12.528 51.675 13.224 52.203 14.12C52.731 15.016 52.995 16.032 52.995 17.168C52.995 18.352 52.707 19.4 52.131 20.312C51.555 21.224 50.739 21.944 49.683 22.472C48.643 22.984 47.419 23.24 46.011 23.24ZM46.251 20.816C46.971 20.816 47.603 20.664 48.147 20.36C48.707 20.04 49.139 19.608 49.443 19.064C49.763 18.52 49.923 17.912 49.923 17.24C49.923 16.568 49.763 15.984 49.443 15.488C49.139 14.976 48.707 14.568 48.147 14.264C47.603 13.96 46.955 13.808 46.203 13.808C45.483 13.808 44.835 13.952 44.259 14.24C43.699 14.528 43.259 14.928 42.939 15.44C42.635 15.936 42.483 16.512 42.483 17.168C42.483 17.84 42.643 18.456 42.963 19.016C43.283 19.576 43.723 20.016 44.283 20.336C44.859 20.656 45.515 20.816 46.251 20.816ZM63.0028 23.168C61.9628 23.168 61.0108 22.928 60.1468 22.448C59.2988 21.968 58.6188 21.248 58.1068 20.288C57.6108 19.312 57.3628 18.08 57.3628 16.592C57.3628 15.088 57.6028 13.856 58.0828 12.896C58.5788 11.936 59.2508 11.224 60.0988 10.76C60.9468 10.28 61.9148 10.04 63.0028 10.04C64.2668 10.04 65.3788 10.312 66.3388 10.856C67.3148 11.4 68.0828 12.16 68.6428 13.136C69.2188 14.112 69.5068 15.264 69.5068 16.592C69.5068 17.92 69.2188 19.08 68.6428 20.072C68.0828 21.048 67.3148 21.808 66.3388 22.352C65.3788 22.896 64.2668 23.168 63.0028 23.168ZM55.8988 27.656V10.184H58.7548V13.208L58.6588 16.616L58.8988 20.024V27.656H55.8988ZM62.6668 20.6C63.3868 20.6 64.0268 20.44 64.5868 20.12C65.1628 19.8 65.6188 19.336 65.9548 18.728C66.2908 18.12 66.4588 17.408 66.4588 16.592C66.4588 15.76 66.2908 15.048 65.9548 14.456C65.6188 13.848 65.1628 13.384 64.5868 13.064C64.0268 12.744 63.3868 12.584 62.6668 12.584C61.9468 12.584 61.2988 12.744 60.7228 13.064C60.1468 13.384 59.6908 13.848 59.3548 14.456C59.0188 15.048 58.8508 15.76 58.8508 16.592C58.8508 17.408 59.0188 18.12 59.3548 18.728C59.6908 19.336 60.1468 19.8 60.7228 20.12C61.2988 20.44 61.9468 20.6 62.6668 20.6ZM80.1045 23V20.408L79.9365 19.856V15.32C79.9365 14.44 79.6725 13.76 79.1445 13.28C78.6165 12.784 77.8165 12.536 76.7445 12.536C76.0245 12.536 75.3125 12.648 74.6085 12.872C73.9205 13.096 73.3365 13.408 72.8565 13.808L71.6805 11.624C72.3685 11.096 73.1845 10.704 74.1285 10.448C75.0885 10.176 76.0805 10.04 77.1045 10.04C78.9605 10.04 80.3925 10.488 81.4005 11.384C82.4245 12.264 82.9365 13.632 82.9365 15.488V23H80.1045ZM76.0725 23.168C75.1125 23.168 74.2725 23.008 73.5525 22.688C72.8325 22.352 72.2725 21.896 71.8725 21.32C71.4885 20.728 71.2965 20.064 71.2965 19.328C71.2965 18.608 71.4645 17.96 71.8005 17.384C72.1525 16.808 72.7205 16.352 73.5045 16.016C74.2885 15.68 75.3285 15.512 76.6245 15.512H80.3445V17.504H76.8405C75.8165 17.504 75.1285 17.672 74.7765 18.008C74.4245 18.328 74.2485 18.728 74.2485 19.208C74.2485 19.752 74.4645 20.184 74.8965 20.504C75.3285 20.824 75.9285 20.984 76.6965 20.984C77.4325 20.984 78.0885 20.816 78.6645 20.48C79.2565 20.144 79.6805 19.648 79.9365 18.992L80.4405 20.792C80.1525 21.544 79.6325 22.128 78.8805 22.544C78.1445 22.96 77.2085 23.168 76.0725 23.168ZM89.3128 23V12.008L90.0088 12.728H84.8008V10.184H96.8008V12.728H91.6168L92.3128 12.008V23H89.3128ZM105.409 14.408C107.057 14.408 108.313 14.776 109.177 15.512C110.041 16.248 110.473 17.288 110.473 18.632C110.473 20.024 109.993 21.112 109.033 21.896C108.073 22.664 106.721 23.04 104.977 23.024L98.9769 23V10.184H101.977V14.384L105.409 14.408ZM104.713 20.816C105.593 20.832 106.265 20.648 106.729 20.264C107.193 19.88 107.425 19.32 107.425 18.584C107.425 17.848 107.193 17.32 106.729 17C106.281 16.664 105.609 16.488 104.713 16.472L101.977 16.448V20.792L104.713 20.816ZM125.575 23.168C124.231 23.168 123.031 22.888 121.975 22.328C120.935 21.752 120.119 20.968 119.527 19.976C118.935 18.984 118.639 17.856 118.639 16.592C118.639 15.312 118.935 14.184 119.527 13.208C120.119 12.216 120.935 11.44 121.975 10.88C123.031 10.32 124.231 10.04 125.575 10.04C126.823 10.04 127.919 10.296 128.863 10.808C129.823 11.304 130.551 12.04 131.047 13.016L128.743 14.36C128.359 13.752 127.887 13.304 127.327 13.016C126.783 12.728 126.191 12.584 125.551 12.584C124.815 12.584 124.151 12.744 123.559 13.064C122.967 13.384 122.503 13.848 122.167 14.456C121.831 15.048 121.663 15.76 121.663 16.592C121.663 17.424 121.831 18.144 122.167 18.752C122.503 19.344 122.967 19.8 123.559 20.12C124.151 20.44 124.815 20.6 125.551 20.6C126.191 20.6 126.783 20.456 127.327 20.168C127.887 19.88 128.359 19.432 128.743 18.824L131.047 20.168C130.551 21.128 129.823 21.872 128.863 22.4C127.919 22.912 126.823 23.168 125.575 23.168ZM133.688 23V10.184H139.952C141.504 10.184 142.72 10.472 143.6 11.048C144.496 11.624 144.944 12.44 144.944 13.496C144.944 14.536 144.528 15.352 143.696 15.944C142.864 16.52 141.76 16.808 140.384 16.808L140.744 16.064C142.296 16.064 143.448 16.352 144.2 16.928C144.968 17.488 145.352 18.312 145.352 19.4C145.352 20.536 144.928 21.424 144.08 22.064C143.232 22.688 141.944 23 140.216 23H133.688ZM136.544 20.816H139.976C140.792 20.816 141.408 20.688 141.824 20.432C142.24 20.16 142.448 19.752 142.448 19.208C142.448 18.632 142.256 18.208 141.872 17.936C141.488 17.664 140.888 17.528 140.072 17.528H136.544V20.816ZM136.544 15.536H139.688C140.456 15.536 141.032 15.4 141.416 15.128C141.816 14.84 142.016 14.44 142.016 13.928C142.016 13.4 141.816 13.008 141.416 12.752C141.032 12.496 140.456 12.368 139.688 12.368H136.544V15.536ZM154.259 23.168C152.947 23.168 151.779 22.888 150.755 22.328C149.731 21.752 148.923 20.968 148.331 19.976C147.739 18.984 147.443 17.856 147.443 16.592C147.443 15.312 147.739 14.184 148.331 13.208C148.923 12.216 149.731 11.44 150.755 10.88C151.779 10.32 152.947 10.04 154.259 10.04C155.587 10.04 156.763 10.32 157.787 10.88C158.827 11.44 159.635 12.208 160.211 13.184C160.803 14.16 161.099 15.296 161.099 16.592C161.099 17.856 160.803 18.984 160.211 19.976C159.635 20.968 158.827 21.752 157.787 22.328C156.763 22.888 155.587 23.168 154.259 23.168ZM154.259 20.6C154.995 20.6 155.651 20.44 156.227 20.12C156.803 19.8 157.251 19.336 157.571 18.728C157.907 18.12 158.075 17.408 158.075 16.592C158.075 15.76 157.907 15.048 157.571 14.456C157.251 13.848 156.803 13.384 156.227 13.064C155.651 12.744 155.003 12.584 154.283 12.584C153.547 12.584 152.891 12.744 152.315 13.064C151.755 13.384 151.307 13.848 150.971 14.456C150.635 15.048 150.467 15.76 150.467 16.592C150.467 17.408 150.635 18.12 150.971 18.728C151.307 19.336 151.755 19.8 152.315 20.12C152.891 20.44 153.539 20.6 154.259 20.6ZM164.063 23V10.184H167.063V18.632L174.143 10.184H176.879V23H173.879V14.552L166.823 23H164.063ZM170.279 8.672C168.999 8.672 168.015 8.376 167.327 7.784C166.639 7.176 166.287 6.296 166.271 5.144H168.263C168.279 5.72 168.455 6.176 168.791 6.512C169.143 6.848 169.631 7.016 170.255 7.016C170.863 7.016 171.343 6.848 171.695 6.512C172.063 6.176 172.255 5.72 172.271 5.144H174.311C174.295 6.296 173.935 7.176 173.231 7.784C172.543 8.376 171.559 8.672 170.279 8.672ZM195.323 23V20.408L195.155 19.856V15.32C195.155 14.44 194.891 13.76 194.363 13.28C193.835 12.784 193.035 12.536 191.963 12.536C191.243 12.536 190.531 12.648 189.827 12.872C189.139 13.096 188.555 13.408 188.075 13.808L186.899 11.624C187.587 11.096 188.403 10.704 189.347 10.448C190.307 10.176 191.299 10.04 192.323 10.04C194.179 10.04 195.611 10.488 196.619 11.384C197.643 12.264 198.155 13.632 198.155 15.488V23H195.323ZM191.291 23.168C190.331 23.168 189.491 23.008 188.771 22.688C188.051 22.352 187.491 21.896 187.091 21.32C186.707 20.728 186.515 20.064 186.515 19.328C186.515 18.608 186.683 17.96 187.019 17.384C187.371 16.808 187.939 16.352 188.723 16.016C189.507 15.68 190.547 15.512 191.843 15.512H195.563V17.504H192.059C191.035 17.504 190.347 17.672 189.995 18.008C189.643 18.328 189.467 18.728 189.467 19.208C189.467 19.752 189.683 20.184 190.115 20.504C190.547 20.824 191.147 20.984 191.915 20.984C192.651 20.984 193.307 20.816 193.883 20.48C194.475 20.144 194.899 19.648 195.155 18.992L195.659 20.792C195.371 21.544 194.851 22.128 194.099 22.544C193.363 22.96 192.427 23.168 191.291 23.168ZM201.868 23V10.184H214.156V23H211.18V12.032L211.876 12.728H204.172L204.868 12.032V23H201.868ZM225.98 23V20.408L225.812 19.856V15.32C225.812 14.44 225.548 13.76 225.02 13.28C224.492 12.784 223.692 12.536 222.62 12.536C221.9 12.536 221.188 12.648 220.484 12.872C219.796 13.096 219.212 13.408 218.732 13.808L217.556 11.624C218.244 11.096 219.06 10.704 220.004 10.448C220.964 10.176 221.956 10.04 222.98 10.04C224.836 10.04 226.268 10.488 227.276 11.384C228.3 12.264 228.812 13.632 228.812 15.488V23H225.98ZM221.948 23.168C220.988 23.168 220.148 23.008 219.428 22.688C218.708 22.352 218.148 21.896 217.748 21.32C217.364 20.728 217.172 20.064 217.172 19.328C217.172 18.608 217.34 17.96 217.676 17.384C218.028 16.808 218.596 16.352 219.38 16.016C220.164 15.68 221.204 15.512 222.5 15.512H226.22V17.504H222.716C221.692 17.504 221.004 17.672 220.652 18.008C220.3 18.328 220.124 18.728 220.124 19.208C220.124 19.752 220.34 20.184 220.772 20.504C221.204 20.824 221.804 20.984 222.572 20.984C223.308 20.984 223.964 20.816 224.54 20.48C225.132 20.144 225.556 19.648 225.812 18.992L226.316 20.792C226.028 21.544 225.508 22.128 224.756 22.544C224.02 22.96 223.084 23.168 221.948 23.168ZM239.628 23.168C238.588 23.168 237.636 22.928 236.772 22.448C235.924 21.968 235.244 21.248 234.732 20.288C234.236 19.312 233.988 18.08 233.988 16.592C233.988 15.088 234.228 13.856 234.708 12.896C235.204 11.936 235.876 11.224 236.724 10.76C237.572 10.28 238.54 10.04 239.628 10.04C240.892 10.04 242.004 10.312 242.964 10.856C243.94 11.4 244.708 12.16 245.268 13.136C245.844 14.112 246.132 15.264 246.132 16.592C246.132 17.92 245.844 19.08 245.268 20.072C244.708 21.048 243.94 21.808 242.964 22.352C242.004 22.896 240.892 23.168 239.628 23.168ZM232.524 27.656V10.184H235.38V13.208L235.284 16.616L235.524 20.024V27.656H232.524ZM239.292 20.6C240.012 20.6 240.652 20.44 241.212 20.12C241.788 19.8 242.244 19.336 242.58 18.728C242.916 18.12 243.084 17.408 243.084 16.592C243.084 15.76 242.916 15.048 242.58 14.456C242.244 13.848 241.788 13.384 241.212 13.064C240.652 12.744 240.012 12.584 239.292 12.584C238.572 12.584 237.924 12.744 237.348 13.064C236.772 13.384 236.316 13.848 235.98 14.456C235.644 15.048 235.476 15.76 235.476 16.592C235.476 17.408 235.644 18.12 235.98 18.728C236.316 19.336 236.772 19.8 237.348 20.12C237.924 20.44 238.572 20.6 239.292 20.6ZM251.313 23V12.008L252.009 12.728H246.801V10.184H258.801V12.728H253.617L254.313 12.008V23H251.313ZM259.929 17.576V15.08H266.529V17.576H259.929ZM275.806 23.168C274.494 23.168 273.326 22.888 272.302 22.328C271.278 21.752 270.47 20.968 269.878 19.976C269.286 18.984 268.99 17.856 268.99 16.592C268.99 15.312 269.286 14.184 269.878 13.208C270.47 12.216 271.278 11.44 272.302 10.88C273.326 10.32 274.494 10.04 275.806 10.04C277.134 10.04 278.31 10.32 279.334 10.88C280.374 11.44 281.182 12.208 281.758 13.184C282.35 14.16 282.646 15.296 282.646 16.592C282.646 17.856 282.35 18.984 281.758 19.976C281.182 20.968 280.374 21.752 279.334 22.328C278.31 22.888 277.134 23.168 275.806 23.168ZM275.806 20.6C276.542 20.6 277.198 20.44 277.774 20.12C278.35 19.8 278.798 19.336 279.118 18.728C279.454 18.12 279.622 17.408 279.622 16.592C279.622 15.76 279.454 15.048 279.118 14.456C278.798 13.848 278.35 13.384 277.774 13.064C277.198 12.744 276.55 12.584 275.83 12.584C275.094 12.584 274.438 12.744 273.862 13.064C273.302 13.384 272.854 13.848 272.518 14.456C272.182 15.048 272.014 15.76 272.014 16.592C272.014 17.408 272.182 18.12 272.518 18.728C272.854 19.336 273.302 19.8 273.862 20.12C274.438 20.44 275.086 20.6 275.806 20.6ZM287.805 23V12.008L288.501 12.728H283.293V10.184H295.293V12.728H290.109L290.805 12.008V23H287.805ZM302.883 23.168C301.459 23.168 300.211 22.888 299.139 22.328C298.083 21.752 297.259 20.968 296.667 19.976C296.091 18.984 295.803 17.856 295.803 16.592C295.803 15.312 296.083 14.184 296.643 13.208C297.219 12.216 298.003 11.44 298.995 10.88C300.003 10.32 301.147 10.04 302.427 10.04C303.675 10.04 304.787 10.312 305.763 10.856C306.739 11.4 307.507 12.168 308.067 13.16C308.627 14.152 308.907 15.32 308.907 16.664C308.907 16.792 308.899 16.936 308.883 17.096C308.883 17.256 308.875 17.408 308.859 17.552H298.179V15.56H307.275L306.099 16.184C306.115 15.448 305.963 14.8 305.643 14.24C305.323 13.68 304.883 13.24 304.323 12.92C303.779 12.6 303.147 12.44 302.427 12.44C301.691 12.44 301.043 12.6 300.483 12.92C299.939 13.24 299.507 13.688 299.187 14.264C298.883 14.824 298.731 15.488 298.731 16.256V16.736C298.731 17.504 298.907 18.184 299.259 18.776C299.611 19.368 300.107 19.824 300.747 20.144C301.387 20.464 302.123 20.624 302.955 20.624C303.675 20.624 304.323 20.512 304.899 20.288C305.475 20.064 305.987 19.712 306.435 19.232L308.043 21.08C307.467 21.752 306.739 22.272 305.859 22.64C304.995 22.992 304.003 23.168 302.883 23.168ZM310.152 22.976L310.296 20.456C310.408 20.472 310.512 20.488 310.608 20.504C310.704 20.52 310.792 20.528 310.872 20.528C311.368 20.528 311.752 20.376 312.024 20.072C312.296 19.768 312.496 19.36 312.624 18.848C312.768 18.32 312.864 17.736 312.912 17.096C312.976 16.44 313.024 15.784 313.056 15.128L313.272 10.184H323.64V23H320.64V11.912L321.336 12.728H315.24L315.888 11.888L315.72 15.272C315.672 16.408 315.576 17.464 315.432 18.44C315.304 19.4 315.096 20.24 314.808 20.96C314.536 21.68 314.152 22.24 313.656 22.64C313.176 23.04 312.56 23.24 311.808 23.24C311.568 23.24 311.304 23.216 311.016 23.168C310.744 23.12 310.456 23.056 310.152 22.976ZM334.112 14.408C335.76 14.408 337.016 14.776 337.88 15.512C338.744 16.248 339.176 17.288 339.176 18.632C339.176 20.024 338.696 21.112 337.736 21.896C336.776 22.664 335.424 23.04 333.68 23.024L327.68 23V10.184H330.68V14.384L334.112 14.408ZM333.416 20.816C334.296 20.832 334.968 20.648 335.432 20.264C335.896 19.88 336.128 19.32 336.128 18.584C336.128 17.848 335.896 17.32 335.432 17C334.984 16.664 334.312 16.488 333.416 16.472L330.68 16.448V20.792L333.416 20.816Z" fill="#1D1D1F"/>
<line x1="378" y1="15.5" x2="359" y2="15.5" stroke="#1D1D1F" stroke-width="2" stroke-linecap="round"/>
<path fill-rule="evenodd" clip-rule="evenodd" d="M408 4.68182C402.578 4.68182 398.182 9.07757 398.182 14.5C398.182 19.9224 402.578 24.3182 408 24.3182C413.422 24.3182 417.818 19.9224 417.818 14.5C417.818 9.07757 413.422 4.68182 408 4.68182ZM396 14.5C396 7.87258 401.373 2.5 408 2.5C414.627 2.5 420 7.87258 420 14.5C420 21.1274 414.627 26.5 408 26.5C401.373 26.5 396 21.1274 396 14.5Z" fill="#1D1D1F"/>
<path fill-rule="evenodd" clip-rule="evenodd" d="M408.771 9.36497C408.345 8.93895 407.655 8.93895 407.229 9.36497C406.803 9.791 406.803 10.4817 407.229 10.9078L409.919 13.4091H403.636C403.034 13.4091 402.545 13.8975 402.545 14.5C402.545 15.1025 403.034 15.5909 403.636 15.5909H409.919L407.229 18.0922C406.803 18.5183 406.803 19.209 407.229 19.635C407.655 20.0611 408.345 20.0611 408.771 19.635L413.134 15.2725C412.937 15.4693 412.664 15.5909 412.364 15.5909H409.919V14.5V13.4091H412.364C412.664 13.4091 412.937 13.5308 413.134 13.7277L408.771 9.36497ZM413.142 13.7358C413.239 13.8348 413.318 13.9522 413.372 14.0824C413.42 14.1993 413.447 14.323 413.453 14.4474C413.447 14.3187 413.419 14.1957 413.372 14.0824C413.32 13.9567 413.243 13.8387 413.142 13.7358ZM413.142 15.2642C413.239 15.1652 413.318 15.0478 413.372 14.9176C413.32 15.0433 413.243 15.1613 413.142 15.2642Z" fill="#1D1D1F"/>
<path d="M412.364 13.4091H409.919V14.5V15.5909H412.364C412.664 15.5909 412.937 15.4693 413.134 15.2725L413.135 15.2714L413.142 15.2642C413.239 15.1652 413.318 15.0478 413.372 14.9176C413.427 14.7842 413.455 14.6421 413.455 14.5C413.455 14.4908 413.454 14.4816 413.454 14.4723C413.454 14.464 413.454 14.4557 413.453 14.4474C413.447 14.323 413.42 14.1993 413.372 14.0824C413.318 13.9522 413.239 13.8348 413.142 13.7358L413.135 13.7286L413.134 13.7277C412.937 13.5308 412.664 13.4091 412.364 13.4091Z" fill="#1D1D1F"/>
<path fill-rule="evenodd" clip-rule="evenodd" d="M413.453 14.4474C413.447 14.3187 413.419 14.1957 413.372 14.0824C413.42 14.1993 413.447 14.323 413.453 14.4474Z" fill="#1D1D1F"/>
</svg>
