<svg width="50" height="50" viewBox="0 0 50 50" fill="none" xmlns="http://www.w3.org/2000/svg">
<rect width="50" height="50" rx="15" fill="#1D1D1F"/>
<path d="M36.57 29.5067C34.7933 29.5067 33.0744 29.24 31.4711 28.76C30.9656 28.6 30.4022 28.72 30.0122 29.08L27.7444 31.7067C23.6567 29.9067 19.8289 26.5067 17.7922 22.6L20.6089 20.3867C20.9989 20.0133 21.1144 19.4933 20.9556 19.0267C20.4211 17.5467 20.1467 15.96 20.1467 14.32C20.1467 13.6 19.4967 13 18.7167 13H13.7189C12.9389 13 12 13.32 12 14.32C12 26.7067 23.1656 37 36.57 37C37.5956 37 38 36.16 38 35.4267V30.8267C38 30.1067 37.35 29.5067 36.57 29.5067Z" fill="white"/>
</svg>
