<svg width="82" height="54" viewBox="0 0 82 54" fill="none" xmlns="http://www.w3.org/2000/svg">
<path d="M1.69008 1.62767L40.8905 4.496L41 4.50401L41.1095 4.496L80.3099 1.62767L77.5092 26.8344L77.4908 27L77.5092 27.1656L80.3099 52.3723L41.1095 49.504L41 49.496L40.8905 49.504L1.69008 52.3723L4.49083 27.1656L4.50923 27L4.49083 26.8344L1.69008 1.62767Z" stroke="white" stroke-width="3"/>
<path d="M46.5227 42V12.9091H56.6932C58.7197 12.9091 60.3911 13.2595 61.7074 13.9602C63.0237 14.6515 64.0038 15.5843 64.6477 16.7585C65.2917 17.9233 65.6136 19.2159 65.6136 20.6364C65.6136 21.8864 65.3911 22.9186 64.946 23.733C64.5104 24.5473 63.9328 25.1913 63.2131 25.6648C62.5028 26.1383 61.7311 26.4886 60.8977 26.7159V27C61.7879 27.0568 62.6828 27.3693 63.5824 27.9375C64.482 28.5057 65.2348 29.3201 65.8409 30.3807C66.447 31.4413 66.75 32.7386 66.75 34.2727C66.75 35.7311 66.4186 37.0426 65.7557 38.2074C65.0928 39.3722 64.0464 40.2955 62.6165 40.9773C61.1866 41.6591 59.3258 42 57.0341 42H46.5227ZM50.0455 38.875H57.0341C59.3352 38.875 60.9688 38.4299 61.9347 37.5398C62.91 36.6402 63.3977 35.5511 63.3977 34.2727C63.3977 33.2879 63.1468 32.3788 62.6449 31.5455C62.143 30.7027 61.428 30.0303 60.5 29.5284C59.572 29.017 58.4735 28.7614 57.2045 28.7614H50.0455V38.875ZM50.0455 25.6932H56.5795C57.6402 25.6932 58.5966 25.4848 59.4489 25.0682C60.3106 24.6515 60.9924 24.0644 61.4943 23.3068C62.0057 22.5492 62.2614 21.6591 62.2614 20.6364C62.2614 19.358 61.8163 18.2737 60.9261 17.3835C60.036 16.4839 58.625 16.0341 56.6932 16.0341H50.0455V25.6932Z" fill="white"/>
<path d="M24.5 42H15.5227V12.9091H24.8977C27.7197 12.9091 30.1345 13.4915 32.142 14.6562C34.1496 15.8116 35.6884 17.4735 36.7585 19.642C37.8286 21.8011 38.3636 24.3864 38.3636 27.3977C38.3636 30.428 37.8239 33.0369 36.7443 35.2244C35.6648 37.4025 34.0928 39.0786 32.0284 40.2528C29.964 41.4176 27.4545 42 24.5 42ZM19.0455 38.875H24.2727C26.678 38.875 28.6714 38.411 30.2528 37.483C31.8343 36.5549 33.0133 35.2339 33.7898 33.5199C34.5663 31.8059 34.9545 29.7652 34.9545 27.3977C34.9545 25.0492 34.571 23.0275 33.804 21.3324C33.0369 19.6278 31.8911 18.321 30.3665 17.4119C28.8419 16.4934 26.9432 16.0341 24.6705 16.0341H19.0455V38.875Z" fill="white"/>
</svg>
