<svg width="23" height="21" viewBox="0 0 23 21" fill="none" xmlns="http://www.w3.org/2000/svg">
<path d="M21.735 14.4433C20.1633 14.4433 18.6428 14.21 17.2244 13.79C16.7772 13.65 16.2789 13.755 15.9339 14.07L13.9278 16.3683C10.3117 14.7933 6.92556 11.8183 5.12389 8.4L7.61556 6.46333C7.96056 6.13667 8.06278 5.68167 7.92222 5.27333C7.44944 3.97833 7.20667 2.59 7.20667 1.155C7.20667 0.525 6.63167 0 5.94167 0H1.52056C0.830555 0 0 0.28 0 1.155C0 11.9933 9.87722 21 21.735 21C22.6422 21 23 20.265 23 19.6233V15.5983C23 14.9683 22.425 14.4433 21.735 14.4433Z" fill="white"/>
</svg>
