<svg width="24" height="25" viewBox="0 0 24 25" fill="none" xmlns="http://www.w3.org/2000/svg">
<path fill-rule="evenodd" clip-rule="evenodd" d="M12 2.68182C6.57757 2.68182 2.18182 7.07757 2.18182 12.5C2.18182 17.9224 6.57757 22.3182 12 22.3182C17.4224 22.3182 21.8182 17.9224 21.8182 12.5C21.8182 7.07757 17.4224 2.68182 12 2.68182ZM0 12.5C0 5.87258 5.37258 0.5 12 0.5C18.6274 0.5 24 5.87258 24 12.5C24 19.1274 18.6274 24.5 12 24.5C5.37258 24.5 0 19.1274 0 12.5Z" fill="#1D1D1F"/>
<path fill-rule="evenodd" clip-rule="evenodd" d="M12.7714 7.36497C12.3454 6.93895 11.6546 6.93895 11.2286 7.36497C10.8026 7.791 10.8026 8.48173 11.2286 8.90775L13.9192 11.4091H7.63636C7.03387 11.4091 6.54545 11.8975 6.54545 12.5C6.54545 13.1025 7.03387 13.5909 7.63636 13.5909H13.9192L11.2286 16.0922C10.8026 16.5183 10.8026 17.209 11.2286 17.635C11.6546 18.0611 12.3454 18.0611 12.7714 17.635L17.1339 13.2725C16.9366 13.4693 16.6643 13.5909 16.3636 13.5909H13.9192V12.5V11.4091H16.3636C16.6644 11.4091 16.9368 11.5308 17.1341 11.7277L12.7714 7.36497ZM17.1421 11.7358C17.2393 11.8348 17.3178 11.9522 17.3718 12.0824C17.4201 12.1993 17.4473 12.323 17.4533 12.4474C17.4472 12.3187 17.4188 12.1957 17.3718 12.0824C17.3197 11.9567 17.2432 11.8387 17.1421 11.7358ZM17.1421 13.2642C17.2393 13.1652 17.3178 13.0478 17.3718 12.9176C17.3197 13.0433 17.2432 13.1613 17.1421 13.2642Z" fill="#1D1D1F"/>
<path d="M16.3636 11.4091H13.9192V12.5V13.5909H16.3636C16.6643 13.5909 16.9366 13.4693 17.1339 13.2725L17.135 13.2714L17.1421 13.2642C17.2393 13.1652 17.3178 13.0478 17.3718 12.9176C17.427 12.7842 17.4545 12.6421 17.4545 12.5C17.4545 12.4908 17.4544 12.4816 17.4542 12.4723C17.454 12.464 17.4537 12.4557 17.4533 12.4474C17.4473 12.323 17.4201 12.1993 17.3718 12.0824C17.3178 11.9522 17.2393 11.8348 17.1421 11.7358L17.135 11.7286L17.1341 11.7277C16.9368 11.5308 16.6644 11.4091 16.3636 11.4091Z" fill="#1D1D1F"/>
<path fill-rule="evenodd" clip-rule="evenodd" d="M17.4533 12.4474C17.4472 12.3187 17.4188 12.1957 17.3718 12.0824C17.4201 12.1993 17.4473 12.323 17.4533 12.4474Z" fill="#1D1D1F"/>
</svg>
